<svg xmlns="http://www.w3.org/2000/svg" viewBox="0 0 300 300"><path d="M150 0c42 0 77 15 107 44a144 144 0 01 32 48 162 162 0 01 1 116 138 138 0 01-33 47 154 154 0 01-50 33A150 150 0 01 150 300c-20 0-40-4-57-11a150 150 0 01-49-33 150 150 0 01-33-49A147 147 0 01 0 150c0-20 4-39 11-57a150 150 0 01 33-50C74 16 108 0 150 0zm0 27c-34 0-63 12-86 36a129 129 0 00-27 40 118 118 0 00-10 47c0 16 3 32 10 46a124 124 0 00 27 40 124 124 0 00 40 27 120 120 0 00 93 0 130 130 0 00 40-27 123 123 0 00 26-133 120 120 0 00-26-40A119 119 0 00 150 27zm-2 98-20 10a20 20 0 00-8-9l-8-3c-14 0-20 10-20 27 0 8 1 14 5 20 3 4 8 7 15 7a20 20 0 00 18-13l19 10a44 44 0 01-17 16c-7 5-14 7-23 7a40 40 0 01-32-13c-8-8-12-20-12-34s4-26 12-34c8-8 19-13 31-13 20 0 32 8 40 22zm87 0-20 10a20 20 0 00-8-9l-9-3c-13 0-20 10-20 27 0 8 2 14 5 20 4 4 9 7 15 7 9 0 15-5 19-13l18 10A46 46 0 01 220 190c-7 5-15 7-23 7-14 0-24-4-32-13-9-8-13-20-13-34s4-26 13-34c8-8 19-13 31-13 19 0 32 8 40 22"/></svg>