<svg xmlns="http://www.w3.org/2000/svg" viewBox="0 0 300 300"><path d="M150 0c42 0 77 14 106 43 30 30 44 65 44 107a140 140 0 01-43 105 148 148 0 01-213 0C14 227 0 192 0 150A148 148 0 01 150 0zM34 110a118 118 0 00 30 127 120 120 0 00 86 35 120 120 0 00 88-36 110 110 0 00 20-27l-56-25a39 39 0 01-15 23 50 50 0 01-27 10v24h-17v-23A70 70 0 01 97 200l21-21c10 10 21 14 34 14 5 0 10-2 13-4 4-2 5-6 5-11 0-4 0-7-4-10l-14-6-18-8-24-10L34 110zM150 27c-34 0-63 12-86 36l-17 20 57 26a35 35 0 01 15-20c7-4 15-7 24-7V59H160v23a60 60 0 01 38 14l-20 20c-8-6-17-9-25-9-5 0-10 1-13 3a10 10 0 00-5 9l1 4 20 8 12 6 24 10 77 35c3-10 4-21 4-32 0-34-12-63-36-87A117 117 0 00 150 27"/></svg>