<svg xmlns="http://www.w3.org/2000/svg" viewBox="0 0 300 300"><path d="M150 0c42 0 77 15 106 44A140 140 0 01 300 150c0 42-14 77-43 106-30 30-66 44-107 44A150 150 0 01 0 150c0-40 15-76 44-106C74 14 108 0 150 0zm0 27c-34 0-63 12-86 36a120 120 0 00 0 173 120 120 0 00 174 0c23-23 35-52 35-86 0-34-12-63-36-87A117 117 0 00 150 27zM83 130A65 65 0 01 150 70a70 70 0 01 56 23 81 81 0 01 21 58 80 80 0 01-21 58 74 74 0 01-57 22c-17 0-31-5-44-15-12-10-20-24-22-43H120c0 18 12 27 33 27 10 0 19-4 25-14 7-9 10-20 10-36s-3-28-9-36a30 30 0 00-25-13c-20 0-32 10-34 27h10l-29 30-30-30h12"/></svg>