<svg xmlns="http://www.w3.org/2000/svg" width="380" height="200" viewBox="0 0 380 200">
  <defs>
    <style>
      .cls-1 {
        fill: #a01e1e;
      }

      .cls-1, .cls-2 {
        fill-rule: evenodd;
      }

      .cls-2 {
        fill: gray;
      }
    </style>
  </defs>
  <path id="ZacharyFettersSignature" class="cls-1" d="M374.876,20.3q-0.123-1.443-.247-2.887l-0.714-.216c-3.206,1.072-10.161,6.241-6.469,10.523,2.322,2.694,7.363,1.909,9.088,5.457,2.29,4.71-9.515,14.726-13.3,15.26l-1.3-.581-0.359-.939c1.194-4.352,11.695-7.407,10.632-12.263l-7.705-3.913c-7.746-8.663,3.785-15.113,9.861-18.014,2.487-.375,4.839.059,5.446,1.89C380.814,17.634,377.44,21.072,374.876,20.3ZM350.139,30.13c-1.618,1.66-3.813,3.713-4.634,5.826-1.476,3.8-2.507,13.331-8.258,14.088-3.558-2.9-2.839-20.171-.773-22.648l1.672-.205,0.9,0.6c0.878,2.892.3,4.681,0.666,7.141l0.438,0.015,0.492-.289c3.163-3.715,5.794-10.711,13.654-10.5l2.572,0.393C358.618,26.884,351.2,29.043,350.139,30.13Zm-48.911,28.5c-1.533-1.042-1.273-3.353-2.218-4.978-1.859,0-2.971,1.138-4.852.277L293.6,52.819c0.59-3.026,6.043-4.144,8.179-5.808l4.436-5.255c3.528-4.31,8.047-7.16,13.723-9.4a4.62,4.62,0,0,1,3.882,1.383c1.515,8.636-22.2,12.961-18.991,21.3,5.4,2.97,18.29-9.777,23.981-8.988a2.317,2.317,0,0,1,.416,2.074C325.639,51,307.4,62.827,301.228,58.627Zm15.248-27.933c-6.532,1.531-20.828,3.927-25.645,7.052-2.679,1.739-7.446,13.393-8.456,17.008-0.647,2.316-.506,5.376-1.663,7.191l-2.357.415c-5.2-1.748,5.282-18.637,4.991-21.71l-0.416-.277c-11.59,1.135-16.4,8.969-18.159,19.912-0.415,2.575,1.059,3.228.831,5.531a4.252,4.252,0,0,1-3.465,1.659c-5.95-2.438,2.225-15.2,1.663-19.221l-0.138-.138c-3.66-.3-9.285,6.723-12.615,3.042V50.192c2.837-5,12.185-4.139,15.526-8.573,1.909-2.535.419-8.119,3.742-9.265l0.832-.138c2.26,1.52,1.191,3.618,1.525,6.5l0.554,0.415,12.338-4.01c2.468-1.462,1.362-6.858,5.683-5.67h0.277c0.536,1.05.693,2.544,1.525,3.319l15.8-3.6L324.1,26.961l1.663,0.138q0.14,0.277.277,0.553C324.909,30.332,319.575,29.968,316.476,30.694ZM221.521,77.433c-1.532-1.042-1.273-3.353-2.218-4.978-1.858,0-2.971,1.138-4.851.277L213.9,71.625c0.589-3.026,6.043-4.144,8.179-5.808l4.435-5.255c3.529-4.31,8.047-7.16,13.724-9.4a4.618,4.618,0,0,1,3.881,1.383c1.515,8.636-22.2,12.961-18.991,21.3,5.405,2.969,18.29-9.778,23.981-8.988a2.312,2.312,0,0,1,.416,2.074C245.932,69.8,227.7,81.633,221.521,77.433Zm15.11-46.462c-11.3,5.906-23.32,11.336-34.1,17.423-5.61,3.168-9.611,1.62-10.535,9.541v3.6q0.139,0.207.277,0.415c2.9-.134,4.948-2.075,7.209-3.042a93.082,93.082,0,0,1,19.961-6.5c1.963-.382,3.721-1.1,5.545-0.277l0.415,1.106c-1.13,3.129-6.985,2.76-10.119,3.872-5.367,1.9-21.811,7.915-24.258,11.616-2.464,3.725.566,15.985-3.327,17.285l-1.8-.138c-2.9-3.977-2.246-27.3-.693-32.219a5.84,5.84,0,0,1,2.272-2.874,29.6,29.6,0,0,1,5.906-3.211c3.037-1.084,6.377-2.627,6.377-2.627V44.931c3.447-1.606,7.081-4.012,9.287-4.972l14.278-6.914L247.3,23.227l1.525,0.138,0.416,0.553q-0.069.622-.139,1.244C245.291,27.907,241.145,28.612,236.631,30.971ZM183.861,28.9c-2.687,3.4-5.44,5.968-8.223,9.4L153.875,66.924c-2.469,3.374-11.957,18.643-15.526,19.083l-0.138-.277q-0.209-.346-0.416-0.691c0.491-4.44,7.684-12.216,10.119-15.9l21.625-29.592,9.842-12.169c1.647-2.537-11-17.713-1.387-15.073,2.19,3.024,3.212,6.608,5.684,9.265,2.57-.225,11.294-11.829,16.634-14.1l1.248,0.415q0.207,0.484.416,0.968c-2.078,4.8-9.789,11.52-14.278,15.764A38.141,38.141,0,0,0,183.861,28.9Zm-19.313-.693c-3.053,2.6-4.372,10.861-10.119,9.956-2.526-2.816-.876-20.361,2.079-22.54l1.941,0.415c1.8,3.169-.935,7.48,0,10.648,2.1,0.154,11.39-11.542,13.446-5.255L171.757,23.5Zm-21.763,8.3c1.237,0.377,2.516-.537,4.159-0.138,1.762,2.962-3.232,7.645-6.654,6.361-1.864-.7-1.5-3.374-3.188-4.287-11.236,4.4-7.254-12.249-4.159-17.285a14.941,14.941,0,0,1,6.792-6.223c2.776-.118,7.248.5,7.9,2.627C149.492,23.49,140.944,30.494,142.785,36.5Zm-2.634-15.9c-2.55,1.653-6.481,7.811-5.822,11.754l0.555,0.415,0.554-.138c2.168-2.881,5.288-7.3,5.684-11.615ZM117.7,43.278l-2.357.553c-5.825-4.361,2.486-14.173-.416-15.9-5.382,2.287-10.233,16.729-14.693,16.317-2.062-2.344-1.222-7.094-.416-10.648,1.77-7.805,4.525-30.494,10.119-32.911,8.161,0.5-7.943,22.047-4.158,28.486,2.783-1.725,8.071-10.042,13.307-8.158,5.968,2.147-.57,13.584-1.386,17.008v5.255ZM78.327,46.735c-8.148-6.22.508-18.566,5.268-21.71a3.542,3.542,0,0,1,3.6,1.659c-0.29,3.6-11.743,8.5-6.376,16.04,3.293,4.629,9.78-4.149,12.476-4.84l1.525,0.83C94.459,44.248,84.479,51.431,78.327,46.735ZM65.574,52.128c-3.531-.374-2.79-5.1-3.466-8.435l-0.416-.138H61.415c-2.107,3.148-9.689,13.654-13.169,4.01-2.674-7.409,5.469-19.54,10.4-20.6,2.187-.472,3.1.8,4.575,1.383,1.432-.673,1.984-1.96,3.465-2.766l1.386,0.138c3.7,3.636-3.064,13.746-.416,19.912C73.754,47.52,69.228,52.515,65.574,52.128Zm-6.1-21.157c-3.293,2.194-7.849,9.081-6.792,14.381l0.555,0.277C55.161,44.8,61.448,35,61.692,32.354A2.224,2.224,0,0,0,59.475,30.971ZM23.156,33.322L23.572,33.6c4.227-.227,18.52-8,21.347-5.669-0.431,2.595-10.114,5.4-12.892,6.5l-15.11,6.361C14.763,42.4,5.6,56.944,6.522,60.01c3.919,1.023,21.784-5.95,27.447-7.191,3.669-.8,10.664-1.911,9.842,3.457l-0.416.415c-1.775.583-2.43-.245-4.02-0.553l-6.515.968c-7.935,2.124-15.119,5.4-22.734,7.744-2.592.8-8.454,1.786-9.7-.83-2.676-5.6,7.65-14.872,8.179-19.636l-0.693-.276c-2.031.579-4.612,1.685-6.515,0.415L1.116,43c2.6-3.155,8.31-2.8,11.921-4.978L32.305,13.962c1.506-1.648,6.24-6.143,5.684-8.435L37.3,5.389c-1.331.284-35.068,9.252-28.833,0.138L20.245,4.7C28.289,3.545,35.63,2.446,42.979,0c6.524,0.22.947,6.888-.554,8.85C39.6,12.541,22.752,29.938,23.156,33.322Z"/>
  <path id="DASHBOARD" class="cls-2" d="M6.55,106.209H0v24.61H7.911c6.693,0,10.923-4.165,10.923-12.3C18.834,110.786,14.2,106.209,6.55,106.209Zm1.324,22.584H2.284V108.235H6.55c6.179,0,9.967,3.564,9.967,10.279C16.517,125.266,13.1,128.793,7.874,128.793Zm53.375,2.026h2.39l-9.194-24.61H52.128l-9.194,24.61h2.391l2.464-6.678H58.748Zm-12.725-8.666,4.156-11.217a16.331,16.331,0,0,0,.552-1.876h0.074c0.184,0.676.368,1.351,0.552,1.876l4.156,11.217H48.524ZM103.256,112.1l2.206-.563c-0.588-1.838-2.17-5.552-8.091-5.552-4.56,0-7.76,2.589-7.76,6.453,0,8.59,13.792,4.876,13.792,12.229,0,2.551-2.28,4.277-6.032,4.277a10.6,10.6,0,0,1-7.319-2.626l-1.434,1.838a13.306,13.306,0,0,0,8.753,2.851c5.076,0,8.312-2.551,8.312-6.34,0-9.266-13.755-5.89-13.755-12.267,0-2.663,2.207-4.352,5.443-4.352A5.689,5.689,0,0,1,103.256,112.1Zm46.721-5.89v10.8H135.523v-10.8h-2.28v24.61h2.28V119h14.454v11.817h2.317v-24.61h-2.317Zm43.177,11.7v-0.075a4.931,4.931,0,0,0,4.045-5.14c0-4.276-2.979-6.49-7.87-6.49h-8.091v24.61h8.79c5.332,0,8.238-2.4,8.238-6.565A5.989,5.989,0,0,0,193.154,117.914Zm1.691-5.1c0,2.363-1.691,4.314-5.038,4.314h-6.252v-8.891h5.48C193.117,108.235,194.845,109.961,194.845,112.812Zm-5.075,15.981h-6.215v-9.829h6.4c3.567,0,6,1.726,6,5.064C195.949,127.255,193.521,128.793,189.77,128.793Zm45.714-22.809c-6.4,0-11.107,4.727-11.107,12.53,0,7.765,4.708,12.492,11.107,12.492,6.436,0,11.107-4.727,11.107-12.492C246.591,110.711,241.92,105.984,235.484,105.984Zm0,22.959c-5.039,0-8.753-3.977-8.753-10.429s3.714-10.467,8.753-10.467c5.075,0,8.79,4.014,8.79,10.467S240.559,128.943,235.484,128.943Zm53.449,1.876h2.39l-9.194-24.61h-2.317l-9.194,24.61h2.39l2.464-6.678h10.96Zm-12.725-8.666,4.156-11.217a16.5,16.5,0,0,0,.551-1.876h0.074c0.184,0.676.368,1.351,0.551,1.876l4.156,11.217h-9.488Zm57.953,8.666-6-10.354c3.053-1.051,5.112-3.339,5.112-6.753,0-4.952-3.2-7.5-8.459-7.5h-7.1v24.61H320v-9.754h4.192c0.515,0,.993-0.038,1.471-0.075l5.7,9.829h2.8ZM320,119.189V108.235h4.707c3.862,0,6.215,1.988,6.215,5.477,0,3.526-2.831,5.477-6.509,5.477H320Zm47.7-12.98h-6.546v24.61h7.907c6.693,0,10.923-4.165,10.923-12.3C379.985,110.786,375.351,106.209,367.7,106.209Zm1.324,22.584h-5.59V108.235H367.7c6.179,0,9.967,3.564,9.967,10.279C377.668,125.266,374.247,128.793,369.025,128.793Z"/>
</svg>
