<svg xmlns="http://www.w3.org/2000/svg" width="300" height="68" viewBox="0 0 300 68">
  <defs>
    <style>
      .cls-1 {
        fill: #fff;
        fill-rule: evenodd;
      }
    </style>
  </defs>
  <path id="ZacharyFettersSignature" class="cls-1" d="M295.876,16.077L295.681,13.8l-0.563-.171c-2.529.847-8.016,4.931-5.1,8.315,1.832,2.128,5.809,1.508,7.17,4.312,1.807,3.721-7.506,11.637-10.489,12.058l-1.027-.459-0.282-.742c0.941-3.439,9.226-5.853,8.387-9.69L287.7,24.327c-6.112-6.845,2.986-11.942,7.78-14.234,1.962-.3,3.817.046,4.3,1.493C300.561,13.974,297.9,16.69,295.876,16.077Zm-19.516,7.77c-1.276,1.311-3.009,2.934-3.656,4.6-1.165,3.005-1.978,10.534-6.515,11.132-2.807-2.289-2.24-15.939-.61-17.9l1.32-.162L267.608,22c0.693,2.285.239,3.7,0.526,5.643l0.345,0.012,0.389-.228c2.5-2.936,4.57-8.464,10.772-8.3l2.029,0.31C283.049,21.283,277.2,22.989,276.36,23.848ZM237.772,46.365c-1.209-.823-1-2.649-1.75-3.933-1.466,0-2.344.9-3.828,0.218l-0.437-.874c0.465-2.392,4.767-3.275,6.452-4.589l3.5-4.152a25.339,25.339,0,0,1,10.827-7.43A3.642,3.642,0,0,1,255.6,26.7c1.195,6.824-17.515,10.242-14.983,16.827,4.264,2.346,14.43-7.726,18.92-7.1a1.834,1.834,0,0,1,.328,1.639C257.031,40.336,242.644,49.684,237.772,46.365ZM249.8,24.294c-5.154,1.209-16.432,3.1-20.233,5.573-2.114,1.374-5.874,10.583-6.671,13.44-0.51,1.83-.4,4.248-1.312,5.682l-1.859.328c-4.1-1.381,4.166-14.726,3.937-17.155l-0.328-.219c-9.144.9-12.938,7.087-14.327,15.734-0.327,2.035.836,2.551,0.656,4.371a3.352,3.352,0,0,1-2.734,1.311c-4.694-1.927,1.756-12.014,1.313-15.188l-0.11-.109c-2.887-.234-7.325,5.313-9.952,2.4V39.7c2.238-3.949,9.614-3.27,12.249-6.774,1.506-2,.331-6.415,2.953-7.321l0.656-.109c1.783,1.2.94,2.859,1.2,5.136l0.437,0.328,9.734-3.169c1.947-1.155,1.074-5.419,4.484-4.48h0.218c0.423,0.83.547,2.01,1.2,2.622l12.468-2.841,12.03-1.748,1.312,0.109,0.219,0.437C256.455,24.008,252.247,23.72,249.8,24.294ZM174.888,61.226c-1.209-.823-1-2.649-1.75-3.934-1.466,0-2.344.9-3.828,0.219q-0.218-.437-0.437-0.874c0.465-2.391,4.767-3.274,6.452-4.589l3.5-4.152a25.351,25.351,0,0,1,10.827-7.43,3.64,3.64,0,0,1,3.062,1.093c1.195,6.824-17.515,10.242-14.983,16.827,4.264,2.346,14.43-7.726,18.92-7.1a1.831,1.831,0,0,1,.328,1.639C194.147,55.2,179.761,64.544,174.888,61.226Zm11.921-36.713c-8.918,4.666-18.4,8.957-26.9,13.767-4.426,2.5-7.583,1.28-8.311,7.539V48.66l0.218,0.328c2.287-.106,3.9-1.639,5.687-2.4a73.382,73.382,0,0,1,15.749-5.135c1.548-.3,2.936-0.865,4.374-0.219L177.95,42.1c-0.891,2.472-5.511,2.181-7.983,3.059-4.235,1.5-17.208,6.255-19.139,9.178-1.943,2.943.447,12.631-2.625,13.658l-1.421-.109c-2.288-3.142-1.772-21.574-.547-25.459a4.616,4.616,0,0,1,1.792-2.271,23.337,23.337,0,0,1,4.66-2.537c2.4-.856,5.031-2.076,5.031-2.076v0c2.72-1.269,5.587-3.17,7.327-3.929l11.265-5.463,18.919-7.758,1.2,0.109,0.329,0.437c-0.037.328-.073,0.656-0.11,0.983C193.641,22.091,190.37,22.648,186.809,24.512Zm-41.633-1.638c-2.119,2.687-4.292,4.716-6.487,7.429l-17.17,22.618C119.571,55.587,112.086,67.653,109.27,68l-0.109-.219q-0.165-.273-0.328-0.546c0.387-3.509,6.062-9.653,7.983-12.565l17.061-23.383,7.765-9.615c1.3-2-8.675-14-1.094-11.91,1.728,2.39,2.534,5.221,4.484,7.321,2.028-.178,8.91-9.347,13.123-11.145l0.985,0.328q0.163,0.382.328,0.765c-1.64,3.79-7.723,9.1-11.265,12.456A30.12,30.12,0,0,0,145.176,22.874Zm-15.236-.547c-2.409,2.058-3.45,8.582-7.984,7.867-1.993-2.225-.691-16.088,1.641-17.81l1.531,0.328c1.421,2.5-.738,5.911,0,8.414,1.659,0.122,8.986-9.121,10.608-4.152q-0.054.819-.109,1.639Zm-17.17,6.556c0.976,0.3,1.985-.424,3.281-0.109,1.39,2.341-2.55,6.041-5.25,5.026-1.47-.553-1.183-2.666-2.515-3.387-8.864,3.48-5.723-9.678-3.281-13.658a11.793,11.793,0,0,1,5.359-4.917c2.19-.093,5.718.4,6.233,2.076C118.061,18.6,111.318,24.135,112.77,28.883Zm-2.078-12.566c-2.012,1.306-5.113,6.172-4.593,9.288l0.437,0.328,0.438-.109c1.71-2.276,4.171-5.77,4.483-9.178ZM92.975,34.237l-1.859.437c-4.6-3.446,1.961-11.2-.328-12.566C86.541,23.915,82.715,35.328,79.2,35c-1.627-1.852-.964-5.605-0.328-8.413,1.4-6.167,3.57-24.1,7.984-26.005C93.289,0.98,80.584,18,83.57,23.092c2.2-1.363,6.368-7.935,10.5-6.447,4.709,1.7-.45,10.734-1.094,13.44v4.152ZM61.916,36.969c-6.428-4.915.4-14.671,4.156-17.155a2.793,2.793,0,0,1,2.843,1.311c-0.229,2.847-9.265,6.715-5.031,12.675,2.6,3.657,7.716-3.279,9.843-3.824l1.2,0.656C74.644,35,66.77,40.679,61.916,36.969ZM51.855,41.23c-2.785-.3-2.2-4.029-2.734-6.665l-0.328-.109H48.574c-1.662,2.488-7.644,10.789-10.39,3.169-2.109-5.854,4.315-15.44,8.2-16.281,1.725-.373,2.444.629,3.609,1.093,1.13-.532,1.566-1.549,2.734-2.185l1.094,0.109c2.923,2.873-2.417,10.862-.328,15.734C58.308,37.589,54.737,41.536,51.855,41.23ZM47.043,24.512c-2.6,1.734-6.192,7.175-5.359,11.364l0.438,0.218c1.518-.655,6.478-8.4,6.671-10.489A1.754,1.754,0,0,0,47.043,24.512ZM18.39,26.37l0.328,0.218c3.335-.18,14.611-6.319,16.842-4.48-0.34,2.05-7.979,4.264-10.171,5.136L13.468,32.27c-1.7,1.271-8.927,12.766-8.2,15.188,3.092,0.809,17.186-4.7,21.654-5.682,2.9-.635,8.414-1.51,7.765,2.732l-0.328.328c-1.4.461-1.917-.193-3.171-0.437l-5.14.765c-6.26,1.678-11.928,4.269-17.936,6.119-2.045.63-6.67,1.411-7.655-.656C-1.657,46.2,6.489,38.875,6.906,35.111L6.36,34.892c-1.6.458-3.639,1.332-5.14,0.328L1,34.018c2.052-2.493,6.556-2.211,9.405-3.934l15.2-19.012c1.188-1.3,4.923-4.854,4.484-6.665L29.545,4.3C28.495,4.522,1.878,11.609,6.8,4.407l9.3-.656C22.439,2.841,28.23,1.973,34.028.037c5.147,0.174.747,5.443-.437,6.993C31.361,9.949,18.071,23.7,18.39,26.37Z"/>
</svg>
